<mxfile host="65bd71144e">
    <diagram name="Page-1" id="I6Uou7BVikwjroJHEp8s">
        <mxGraphModel dx="776" dy="600" grid="1" gridSize="10" guides="1" tooltips="1" connect="1" arrows="1" fold="1" page="1" pageScale="1" pageWidth="827" pageHeight="1169" math="0" shadow="0">
            <root>
                <mxCell id="0"/>
                <mxCell id="1" parent="0"/>
                <mxCell id="1_VUEVhc7j29jmKJWL4Y-3" value="Input" style="edgeStyle=orthogonalEdgeStyle;rounded=0;orthogonalLoop=1;jettySize=auto;html=1;exitX=0.5;exitY=1;exitDx=0;exitDy=0;" parent="1" source="1_VUEVhc7j29jmKJWL4Y-1" target="1_VUEVhc7j29jmKJWL4Y-2" edge="1">
                    <mxGeometry relative="1" as="geometry">
                        <mxPoint x="405" y="210" as="targetPoint"/>
                    </mxGeometry>
                </mxCell>
                <mxCell id="1_VUEVhc7j29jmKJWL4Y-1" value="Pixels inside of bounding circle" style="rounded=1;whiteSpace=wrap;html=1;fillColor=#cdeb8b;strokeColor=#36393d;fontColor=#000000;" parent="1" vertex="1">
                    <mxGeometry x="350" y="150" width="110" height="40" as="geometry"/>
                </mxCell>
                <mxCell id="1_VUEVhc7j29jmKJWL4Y-5" style="edgeStyle=orthogonalEdgeStyle;rounded=0;orthogonalLoop=1;jettySize=auto;html=1;" parent="1" source="1_VUEVhc7j29jmKJWL4Y-2" target="1_VUEVhc7j29jmKJWL4Y-4" edge="1">
                    <mxGeometry relative="1" as="geometry"/>
                </mxCell>
                <mxCell id="1_VUEVhc7j29jmKJWL4Y-6" value="No" style="edgeLabel;html=1;align=center;verticalAlign=middle;resizable=0;points=[];" parent="1_VUEVhc7j29jmKJWL4Y-5" vertex="1" connectable="0">
                    <mxGeometry x="-0.1" y="-2" relative="1" as="geometry">
                        <mxPoint y="-12" as="offset"/>
                    </mxGeometry>
                </mxCell>
                <mxCell id="1_VUEVhc7j29jmKJWL4Y-8" style="edgeStyle=orthogonalEdgeStyle;rounded=0;orthogonalLoop=1;jettySize=auto;html=1;" parent="1" source="1_VUEVhc7j29jmKJWL4Y-2" target="1_VUEVhc7j29jmKJWL4Y-7" edge="1">
                    <mxGeometry relative="1" as="geometry"/>
                </mxCell>
                <mxCell id="1_VUEVhc7j29jmKJWL4Y-15" value="Yes" style="edgeLabel;html=1;align=center;verticalAlign=middle;resizable=0;points=[];" parent="1_VUEVhc7j29jmKJWL4Y-8" vertex="1" connectable="0">
                    <mxGeometry x="-0.1" relative="1" as="geometry">
                        <mxPoint as="offset"/>
                    </mxGeometry>
                </mxCell>
                <mxCell id="1_VUEVhc7j29jmKJWL4Y-2" value="Mean&lt;br&gt; brightness in&lt;br&gt;range" style="rhombus;whiteSpace=wrap;html=1;fillColor=#ffcc99;strokeColor=#36393d;fontColor=#000000;" parent="1" vertex="1">
                    <mxGeometry x="350" y="230" width="110" height="80" as="geometry"/>
                </mxCell>
                <mxCell id="1_VUEVhc7j29jmKJWL4Y-4" value="Label&lt;br&gt;&quot;undefined&quot;" style="ellipse;whiteSpace=wrap;html=1;aspect=fixed;fillColor=#b0e3e6;strokeColor=#0e8088;fontColor=#3B3B3B;fontStyle=1" parent="1" vertex="1">
                    <mxGeometry x="520" y="230" width="80" height="80" as="geometry"/>
                </mxCell>
                <mxCell id="1_VUEVhc7j29jmKJWL4Y-10" style="edgeStyle=orthogonalEdgeStyle;rounded=0;orthogonalLoop=1;jettySize=auto;html=1;" parent="1" source="1_VUEVhc7j29jmKJWL4Y-7" target="1_VUEVhc7j29jmKJWL4Y-9" edge="1">
                    <mxGeometry relative="1" as="geometry"/>
                </mxCell>
                <mxCell id="1_VUEVhc7j29jmKJWL4Y-11" value="Yes" style="edgeLabel;html=1;align=center;verticalAlign=middle;resizable=0;points=[];" parent="1_VUEVhc7j29jmKJWL4Y-10" vertex="1" connectable="0">
                    <mxGeometry x="-0.2533" y="-5" relative="1" as="geometry">
                        <mxPoint x="7" y="-15" as="offset"/>
                    </mxGeometry>
                </mxCell>
                <mxCell id="1_VUEVhc7j29jmKJWL4Y-17" value="No" style="edgeStyle=orthogonalEdgeStyle;rounded=0;orthogonalLoop=1;jettySize=auto;html=1;" parent="1" source="1_VUEVhc7j29jmKJWL4Y-7" target="1_VUEVhc7j29jmKJWL4Y-12" edge="1">
                    <mxGeometry relative="1" as="geometry"/>
                </mxCell>
                <mxCell id="1_VUEVhc7j29jmKJWL4Y-7" value="20% of px&lt;br&gt;are &quot;red&quot;" style="rhombus;whiteSpace=wrap;html=1;fillColor=#ffcc99;strokeColor=#36393d;fontColor=#000000;" parent="1" vertex="1">
                    <mxGeometry x="350" y="350" width="110" height="80" as="geometry"/>
                </mxCell>
                <mxCell id="1_VUEVhc7j29jmKJWL4Y-9" value="Label&lt;br&gt;&quot;red&quot;" style="ellipse;whiteSpace=wrap;html=1;aspect=fixed;fillColor=#b0e3e6;strokeColor=#0e8088;fontColor=#cd1d1d;fontStyle=1" parent="1" vertex="1">
                    <mxGeometry x="520" y="350" width="80" height="80" as="geometry"/>
                </mxCell>
                <mxCell id="1_VUEVhc7j29jmKJWL4Y-19" value="Yes" style="edgeStyle=orthogonalEdgeStyle;rounded=0;orthogonalLoop=1;jettySize=auto;html=1;entryX=0;entryY=0.5;entryDx=0;entryDy=0;" parent="1" source="1_VUEVhc7j29jmKJWL4Y-12" target="1_VUEVhc7j29jmKJWL4Y-18" edge="1">
                    <mxGeometry x="-0.0667" y="10" relative="1" as="geometry">
                        <mxPoint as="offset"/>
                    </mxGeometry>
                </mxCell>
                <mxCell id="2" style="edgeStyle=none;html=1;entryX=0;entryY=1;entryDx=0;entryDy=0;" edge="1" parent="1" source="1_VUEVhc7j29jmKJWL4Y-12" target="1_VUEVhc7j29jmKJWL4Y-9">
                    <mxGeometry relative="1" as="geometry"/>
                </mxCell>
                <mxCell id="3" value="No" style="edgeLabel;html=1;align=center;verticalAlign=middle;resizable=0;points=[];" vertex="1" connectable="0" parent="2">
                    <mxGeometry x="0.1783" y="-3" relative="1" as="geometry">
                        <mxPoint as="offset"/>
                    </mxGeometry>
                </mxCell>
                <mxCell id="1_VUEVhc7j29jmKJWL4Y-12" value="&quot;green&quot; px&lt;br&gt;&amp;gt; &lt;br&gt;&quot;red&quot; px" style="rhombus;whiteSpace=wrap;html=1;fillColor=#ffcc99;strokeColor=#36393d;fontColor=#000000;" parent="1" vertex="1">
                    <mxGeometry x="350" y="480" width="110" height="80" as="geometry"/>
                </mxCell>
                <mxCell id="1_VUEVhc7j29jmKJWL4Y-18" value="Label&lt;br&gt;&quot;green&quot;" style="ellipse;whiteSpace=wrap;html=1;aspect=fixed;fillColor=#b0e3e6;strokeColor=#0e8088;fontColor=#0C5C20;fontStyle=1" parent="1" vertex="1">
                    <mxGeometry x="520" y="480" width="80" height="80" as="geometry"/>
                </mxCell>
            </root>
        </mxGraphModel>
    </diagram>
</mxfile>